<svg xmlns="http://www.w3.org/2000/svg" width="1052.362" height="744.094"><path d="M440.038 535.193c-58.899 9.099-99.26 64.21-90.162 123.108 9.099 58.898 64.213 99.286 123.112 90.187 58.898-9.099 99.282-64.239 90.183-123.137-9.099-58.899-64.235-99.257-123.133-90.158zm1.86 12.04c52.243-8.07 101.136 27.739 109.207 79.982 8.07 52.243-27.738 101.136-79.981 109.207-52.244 8.07-101.137-27.738-109.207-79.981-8.07-52.244 27.737-101.137 79.98-109.207z" style="fill:#000;fill-opacity:1;fill-rule:nonzero;stroke:none" transform="translate(0 -308.268)"/><path d="M709.25 841.559c-64.346-44.235-102.758-72.497-150.607-127.411-13.905-17.789-12.067-16.328-26.997-.494-17.412 15.837-15.771 16.74.258 27.587 51.668 35.015 98.338 86.865 139.148 138.501 18.75 15.989 54.304-16.92 38.199-38.183z" style="fill:#000;fill-opacity:1;fill-rule:nonzero;stroke:none" transform="translate(0 -308.268)"/></svg>